<svg width="52" height="71" viewBox="0 0 52 71" fill="none" xmlns="http://www.w3.org/2000/svg">
<path d="M33.447 14.4013C33.447 15.2078 32.8045 15.8606 32.0108 15.8606H20.0304C19.2367 15.8606 18.5942 15.2078 18.5942 14.4013V2.2274C18.5942 1.42093 19.2367 0.768066 20.0304 0.768066H32.0108C32.8045 0.768066 33.447 1.42093 33.447 2.2274V14.4013Z" fill="#32A041"/>
<path d="M51.3232 14.4013C51.3232 15.2078 50.6807 15.8606 49.887 15.8606H37.9066C37.1129 15.8606 36.4705 15.2078 36.4705 14.4013V2.2274C36.4705 1.42093 37.1129 0.768066 37.9066 0.768066H49.887C50.6807 0.768066 51.3232 1.42093 51.3232 2.2274V14.4013Z" fill="#32A041"/>
<path d="M51.3232 50.6926C51.3232 51.4991 50.6807 52.1519 49.887 52.1519H37.9066C37.1129 52.1519 36.4705 51.4991 36.4705 50.6926V38.5187C36.4705 37.7122 37.1129 37.0594 37.9066 37.0594H49.887C50.6807 37.0594 51.3232 37.7122 51.3232 38.5187V50.6926Z" fill="#32A041"/>
<path d="M15.6086 32.5277C15.6086 33.3342 14.9661 33.9871 14.1724 33.9871H2.192C1.39834 33.9871 0.755859 33.3342 0.755859 32.5277V20.3538C0.755859 19.5473 1.39834 18.8945 2.192 18.8945H14.1724C14.9661 18.8945 15.6086 19.5473 15.6086 20.3538V32.5277Z" fill="#32A041"/>
<path d="M33.447 32.5277C33.447 33.3342 32.8045 33.9871 32.0108 33.9871H20.0304C19.2367 33.9871 18.5942 33.3342 18.5942 32.5277V20.3538C18.5942 19.5473 19.2367 18.8945 20.0304 18.8945H32.0108C32.8045 18.8945 33.447 19.5473 33.447 20.3538V32.5277Z" fill="#32A041"/>
<path d="M15.6086 50.6926C15.6086 51.4991 14.9661 52.1519 14.1724 52.1519H2.192C1.39834 52.1519 0.755859 51.4991 0.755859 50.6926V38.5187C0.755859 37.7122 1.39834 37.0594 2.192 37.0594H14.1724C14.9661 37.0594 15.6086 37.7122 15.6086 38.5187V50.6926Z" fill="#32A041"/>
<path d="M33.447 50.6926C33.447 51.4991 32.8045 52.1519 32.0108 52.1519H20.0304C19.2367 52.1519 18.5942 51.4991 18.5942 50.6926V38.5187C18.5942 37.7122 19.2367 37.0594 20.0304 37.0594H32.0108C32.8045 37.0594 33.447 37.7122 33.447 38.5187V50.6926Z" fill="#32A041"/>
<path d="M15.6086 68.8575C15.6086 69.664 14.9661 70.3168 14.1724 70.3168H2.192C1.39834 70.3168 0.755859 69.664 0.755859 68.8575V56.6836C0.755859 55.8771 1.39834 55.2242 2.192 55.2242H14.1724C14.9661 55.2242 15.6086 55.8771 15.6086 56.6836V68.8575Z" fill="#32A041"/>
<path d="M33.447 68.8575C33.447 69.664 32.8045 70.3168 32.0108 70.3168H20.0304C19.2367 70.3168 18.5942 69.664 18.5942 68.8575V56.6836C18.5942 55.8771 19.2367 55.2242 20.0304 55.2242H32.0108C32.8045 55.2242 33.447 55.8771 33.447 56.6836V68.8575Z" fill="#32A041"/>
<path d="M16.3645 8.33356C16.3645 12.942 12.6985 16.6671 8.16333 16.6671C3.62815 16.6671 0 12.942 0 8.33356C0 3.72514 3.66594 0 8.16333 0C12.6985 0 16.3645 3.72514 16.3645 8.33356Z" fill="#C8191E"/>
</svg>
